<svg xmlns="http://www.w3.org/2000/svg" class="graphdiagram" viewBox="-4435.913612524625 -1704.7590136938775 4377.866475155319 2304.266712225"><g class="layer relationships"><g class="related-pair"><g class="relationship" transform="translate(-2312.75578125,-717.558984375) rotate(26.239881884479182)"><path class="relationship" d="M 96.48257513332433 4 L 705.4214461849219 4 L 705.4214461849219 16 L 737.4214461849219 0 L 705.4214461849219 -16 L 705.4214461849219 -4 L 96.48257513332433 -4 Z" fill="rgb(0, 0, 0)" stroke="rgb(51, 51, 51)" stroke-width="0px"/><text class="type" text-anchor="middle" baseline-shift="30%" alignment-baseline="alphabetic" x="400.9520106591232" y="0" font-size="50px" font-family="&quot;Gill Sans&quot;, &quot;Gill Sans MT&quot;, Calibri, sans-serif">exported_from</text></g></g><g class="related-pair"><g class="relationship" transform="translate(-2312.75578125,-717.558984375) rotate(155.96183040817365)"><path class="relationship" d="M 96.48257513332433 4 L 782.2237716524426 4 L 782.2237716524426 16 L 814.2237716524426 0 L 782.2237716524426 -16 L 782.2237716524426 -4 L 96.48257513332433 -4 Z" fill="rgb(0, 0, 0)" stroke="rgb(51, 51, 51)" stroke-width="0px"/><text class="type" text-anchor="middle" baseline-shift="30%" alignment-baseline="alphabetic" x="-439.3531733928835" y="0" font-size="50px" font-family="&quot;Gill Sans&quot;, &quot;Gill Sans MT&quot;, Calibri, sans-serif" transform="rotate(180)">exported_to</text></g></g><g class="related-pair"><g class="relationship" transform="translate(-2312.75578125,-717.558984375) rotate(-29.658735597784958)"><path class="relationship" d="M 96.48257513332433 4 L 567.9763699057561 4 L 567.9763699057561 16 L 599.9763699057561 0 L 567.9763699057561 -16 L 567.9763699057561 -4 L 96.48257513332433 -4 Z" fill="rgb(0, 0, 0)" stroke="rgb(51, 51, 51)" stroke-width="0px"/><text class="type" text-anchor="middle" baseline-shift="30%" alignment-baseline="alphabetic" x="332.2294725195402" y="0" font-size="50px" font-family="&quot;Gill Sans&quot;, &quot;Gill Sans MT&quot;, Calibri, sans-serif">traded_product</text></g></g><g class="related-pair"><g class="relationship" transform="translate(-1688.7258984374998,-1072.9039453125) rotate(0)"><path class="relationship" d="M 118.13457967422063 4 L 459.3711319976036 4 L 459.3711319976036 16 L 491.3711319976036 0 L 459.3711319976036 -16 L 459.3711319976036 -4 L 118.13457967422063 -4 Z" fill="rgb(0, 0, 0)" stroke="rgb(51, 51, 51)" stroke-width="0px"/><text class="type" text-anchor="middle" baseline-shift="30%" alignment-baseline="alphabetic" x="288.7528558359121" y="0" font-size="50px" font-family="&quot;Gill Sans&quot;, &quot;Gill Sans MT&quot;, Calibri, sans-serif">belongs_to</text></g></g><g class="related-pair"><g class="relationship" transform="translate(-1065.62080078125,-1072.9039453125) rotate(21.987577559723363)"><path class="relationship" d="M 131.7339656586464 4 L 339.61616406467783 4 L 339.61616406467783 16 L 371.61616406467783 0 L 339.61616406467783 -16 L 339.61616406467783 -4 L 131.7339656586464 -4 Z" fill="rgb(0, 0, 0)" stroke="rgb(51, 51, 51)" stroke-width="0px"/><text class="type" text-anchor="middle" baseline-shift="30%" alignment-baseline="alphabetic" x="235.67506486166212" y="0" font-size="50px" font-family="&quot;Gill Sans&quot;, &quot;Gill Sans MT&quot;, Calibri, sans-serif">belongs_to</text></g></g><g class="related-pair"><g class="relationship" transform="translate(-2312.75578125,-717.558984375) rotate(-152.17783891451685)"><path class="relationship" d="M 96.48257513332433 4 L 706.4308609496932 4 L 706.4308609496932 16 L 738.4308609496932 0 L 706.4308609496932 -16 L 706.4308609496932 -4 L 96.48257513332433 -4 Z" fill="rgb(0, 0, 0)" stroke="rgb(51, 51, 51)" stroke-width="0px"/><text class="type" text-anchor="middle" baseline-shift="30%" alignment-baseline="alphabetic" transform="rotate(180)" x="-401.4567180415088" y="0" font-size="50px" font-family="&quot;Gill Sans&quot;, &quot;Gill Sans MT&quot;, Calibri, sans-serif">occured_on</text></g></g><g class="related-pair"><g class="relationship" transform="translate(-2385.5255566406227,-26.026843872069993) rotate(-17.182550329887295)"><path class="relationship" d="M 82.02374709578595 4 L 724.732025169001 4 L 724.732025169001 16 L 756.732025169001 0 L 724.732025169001 -16 L 724.732025169001 -4 L 82.02374709578595 -4 Z" fill="rgb(0, 0, 0)" stroke="rgb(51, 51, 51)" stroke-width="0px"/></g></g><g class="related-pair"><g class="relationship" transform="translate(-2385.5255566406227,-26.026843872069993) rotate(-161.72239065576736)"><path class="relationship" d="M 82.02374709578595 4 L 667.03182159631 4 L 667.03182159631 16 L 699.03182159631 0 L 667.03182159631 -16 L 667.03182159631 -4 L 82.02374709578595 -4 Z" fill="rgb(0, 0, 0)" stroke="rgb(51, 51, 51)" stroke-width="0px"/></g></g><g class="related-pair"><g class="relationship" transform="translate(-2312.75578125,-717.558984375) rotate(-90)"><path class="relationship" d="M 96.48257513332433 4 L 246.0018597385294 4 L 246.0018597385294 16 L 278.0018597385294 0 L 246.0018597385294 -16 L 246.0018597385294 -4 L 96.48257513332433 -4 Z" fill="rgb(0, 0, 0)" stroke="rgb(51, 51, 51)" stroke-width="0px"/></g></g></g><g class="layer nodes"><circle class="node node-id-0" r="81.48257513332433" fill="rgb(255, 255, 255)" stroke="rgb(0, 0, 0)" stroke-width="8px" cx="-2312.75578125" cy="-717.558984375"/><circle class="node node-id-1" r="177.45433200308383" fill="rgb(255, 255, 255)" stroke="rgb(0, 0, 0)" stroke-width="8px" cx="-1478.7029271697986" cy="-306.4327270507811"/><circle class="node node-id-2" r="180.05856369650002" fill="rgb(255, 255, 255)" stroke="rgb(0, 0, 0)" stroke-width="8px" cx="-3234.5073925781253" cy="-306.4327270507811"/><circle class="node node-id-3" r="103.13457967422063" fill="rgb(255, 255, 255)" stroke="rgb(0, 0, 0)" stroke-width="8px" cx="-1688.7258984374998" cy="-1072.9039453125"/><circle class="node node-id-4" r="116.73396565864643" fill="rgb(255, 255, 255)" stroke="rgb(0, 0, 0)" stroke-width="8px" cx="-1065.62080078125" cy="-1072.9039453125"/><circle class="node node-id-5" r="97.55915077766545" fill="rgb(255, 255, 255)" stroke="rgb(0, 0, 0)" stroke-width="8px" cx="-616.6619522094726" cy="-891.6260156249999"/><circle class="node node-id-6" r="69.95185159579395" fill="rgb(255, 255, 255)" stroke="rgb(0, 0, 0)" stroke-width="8px" cx="-3040.9558789062494" cy="-1101.8553662109377"/><circle class="node node-id-7" r="67.02374709578595" fill="rgb(255, 255, 255)" stroke="rgb(0, 0, 0)" stroke-width="8px" cx="-2385.5255566406227" cy="-26.026843872069993"/><circle class="node node-id-10" r="117.84368713647059" fill="rgb(255, 255, 255)" stroke="rgb(0, 0, 0)" stroke-width="8px" cx="-2312.75578125" cy="-1128.40453125"/><g class="caption"><text class="caption node" text-anchor="middle" alignment-baseline="central" x="-2312.75578125" y="-717.558984375" fill="rgb(51, 51, 51)" font-size="50px" font-family="&quot;Gill Sans&quot;, &quot;Gill Sans MT&quot;, Calibri, sans-serif">Trade</text></g><g class="caption"><text class="caption node" text-anchor="middle" alignment-baseline="central" x="-1478.7029271697986" y="-306.4327270507811" fill="rgb(51, 51, 51)" font-size="50px" font-family="&quot;Gill Sans&quot;, &quot;Gill Sans MT&quot;, Calibri, sans-serif">Country_Seller</text></g><g class="caption"><text class="caption node" text-anchor="middle" alignment-baseline="central" x="-3234.5073925781253" y="-306.4327270507811" fill="rgb(51, 51, 51)" font-size="50px" font-family="&quot;Gill Sans&quot;, &quot;Gill Sans MT&quot;, Calibri, sans-serif">Country_Buyer</text></g><g class="caption"><text class="caption node" text-anchor="middle" alignment-baseline="central" x="-1688.7258984374998" y="-1072.9039453125" fill="rgb(51, 51, 51)" font-size="50px" font-family="&quot;Gill Sans&quot;, &quot;Gill Sans MT&quot;, Calibri, sans-serif">Product</text></g><g class="caption"><text class="caption node" text-anchor="middle" alignment-baseline="central" x="-1065.62080078125" y="-1072.9039453125" fill="rgb(51, 51, 51)" font-size="50px" font-family="&quot;Gill Sans&quot;, &quot;Gill Sans MT&quot;, Calibri, sans-serif">Category</text></g><g class="caption"><text class="caption node" text-anchor="middle" alignment-baseline="central" x="-616.6619522094726" y="-891.6260156249999" fill="rgb(51, 51, 51)" font-size="50px" font-family="&quot;Gill Sans&quot;, &quot;Gill Sans MT&quot;, Calibri, sans-serif">Section</text></g><g class="caption"><text class="caption node" text-anchor="middle" alignment-baseline="central" x="-3040.9558789062494" y="-1101.8553662109377" fill="rgb(51, 51, 51)" font-size="50px" font-family="&quot;Gill Sans&quot;, &quot;Gill Sans MT&quot;, Calibri, sans-serif">Year</text></g><g class="caption"><text class="caption node" text-anchor="middle" alignment-baseline="central" x="-2385.5255566406227" y="-26.026843872069993" fill="rgb(51, 51, 51)" font-size="50px" font-family="&quot;Gill Sans&quot;, &quot;Gill Sans MT&quot;, Calibri, sans-serif">FTA</text></g><g class="caption"><text class="caption node" text-anchor="middle" alignment-baseline="central" x="-2312.75578125" y="-1128.40453125" fill="rgb(51, 51, 51)" font-size="50px" font-family="&quot;Gill Sans&quot;, &quot;Gill Sans MT&quot;, Calibri, sans-serif">Currency</text></g></g><g class="layer properties"><g class="speech-bubble node-speech-bubble" transform="translate(-2312.75578125,-636.0764092416757) "><path class="speech-bubble-outline" transform="scale(1,1) " d="M 0 0 L -10 20 L -187.90283203125 20 A 10 10 0 0 0 -197.90283203125 30 L -197.90283203125 130 A 10 10 0 0 0 -187.90283203125 140 L 187.90283203125 140 A 10 10 0 0 0 197.90283203125 130 L 197.90283203125 30 A 10 10 0 0 0 187.90283203125 20 L 10 20 Z" fill="rgb(255, 255, 255)" stroke="rgb(0, 0, 0)" stroke-width="3px"/><text class="speech-bubble-content property-key" x="74.91455078125" y="55" alignment-baseline="central" text-anchor="end" font-size="50px" font-family="&quot;Gill Sans&quot;, &quot;Gill Sans MT&quot;, Calibri, sans-serif" xml:space="preserve">id: </text><text class="speech-bubble-content property-key" x="74.91455078125" y="105" alignment-baseline="central" text-anchor="end" font-size="50px" font-family="&quot;Gill Sans&quot;, &quot;Gill Sans MT&quot;, Calibri, sans-serif" xml:space="preserve">trade_value: </text><text class="speech-bubble-content property-value" x="74.91455078125" y="55" alignment-baseline="central" font-size="50px" font-family="&quot;Gill Sans&quot;, &quot;Gill Sans MT&quot;, Calibri, sans-serif">string</text><text class="speech-bubble-content property-value" x="74.91455078125" y="105" alignment-baseline="central" font-size="50px" font-family="&quot;Gill Sans&quot;, &quot;Gill Sans MT&quot;, Calibri, sans-serif">int</text></g><g class="speech-bubble node-speech-bubble" transform="translate(-1301.2485951667147,-306.4327270507811) "><path class="speech-bubble-outline" transform="scale(1,1) " d="M 0 0 L 20 -10 L 20 -175 A 10 10 0 0 1 30 -185 L 698.5546875 -185 A 10 10 0 0 1 708.5546875 -175 L 708.5546875 175 A 10 10 0 0 1 698.5546875 185 L 30 185 A 10 10 0 0 1 20 175 L 20 10 Z" fill="rgb(255, 255, 255)" stroke="rgb(0, 0, 0)" stroke-width="3px"/><text class="speech-bubble-content property-key" x="585.56640625" y="-150" alignment-baseline="central" text-anchor="end" font-size="50px" font-family="&quot;Gill Sans&quot;, &quot;Gill Sans MT&quot;, Calibri, sans-serif" xml:space="preserve">name: </text><text class="speech-bubble-content property-key" x="585.56640625" y="-100" alignment-baseline="central" text-anchor="end" font-size="50px" font-family="&quot;Gill Sans&quot;, &quot;Gill Sans MT&quot;, Calibri, sans-serif" xml:space="preserve">current_gdp: </text><text class="speech-bubble-content property-key" x="585.56640625" y="-50" alignment-baseline="central" text-anchor="end" font-size="50px" font-family="&quot;Gill Sans&quot;, &quot;Gill Sans MT&quot;, Calibri, sans-serif" xml:space="preserve">current_gdp_per_capita: </text><text class="speech-bubble-content property-key" x="585.56640625" y="0" alignment-baseline="central" text-anchor="end" font-size="50px" font-family="&quot;Gill Sans&quot;, &quot;Gill Sans MT&quot;, Calibri, sans-serif" xml:space="preserve">current_global_gdp_share: </text><text class="speech-bubble-content property-key" x="585.56640625" y="50" alignment-baseline="central" text-anchor="end" font-size="50px" font-family="&quot;Gill Sans&quot;, &quot;Gill Sans MT&quot;, Calibri, sans-serif" xml:space="preserve">current_population: </text><text class="speech-bubble-content property-key" x="585.56640625" y="100" alignment-baseline="central" text-anchor="end" font-size="50px" font-family="&quot;Gill Sans&quot;, &quot;Gill Sans MT&quot;, Calibri, sans-serif" xml:space="preserve">gdp.2019: </text><text class="speech-bubble-content property-key" x="585.56640625" y="150" alignment-baseline="central" text-anchor="end" font-size="50px" font-family="&quot;Gill Sans&quot;, &quot;Gill Sans MT&quot;, Calibri, sans-serif" xml:space="preserve">gdp.2018: </text><text class="speech-bubble-content property-value" x="585.56640625" y="-150" alignment-baseline="central" font-size="50px" font-family="&quot;Gill Sans&quot;, &quot;Gill Sans MT&quot;, Calibri, sans-serif">string</text><text class="speech-bubble-content property-value" x="585.56640625" y="-100" alignment-baseline="central" font-size="50px" font-family="&quot;Gill Sans&quot;, &quot;Gill Sans MT&quot;, Calibri, sans-serif">float</text><text class="speech-bubble-content property-value" x="585.56640625" y="-50" alignment-baseline="central" font-size="50px" font-family="&quot;Gill Sans&quot;, &quot;Gill Sans MT&quot;, Calibri, sans-serif">float</text><text class="speech-bubble-content property-value" x="585.56640625" y="0" alignment-baseline="central" font-size="50px" font-family="&quot;Gill Sans&quot;, &quot;Gill Sans MT&quot;, Calibri, sans-serif">float</text><text class="speech-bubble-content property-value" x="585.56640625" y="50" alignment-baseline="central" font-size="50px" font-family="&quot;Gill Sans&quot;, &quot;Gill Sans MT&quot;, Calibri, sans-serif">int</text><text class="speech-bubble-content property-value" x="585.56640625" y="100" alignment-baseline="central" font-size="50px" font-family="&quot;Gill Sans&quot;, &quot;Gill Sans MT&quot;, Calibri, sans-serif">float</text><text class="speech-bubble-content property-value" x="585.56640625" y="150" alignment-baseline="central" font-size="50px" font-family="&quot;Gill Sans&quot;, &quot;Gill Sans MT&quot;, Calibri, sans-serif">float</text></g><g class="speech-bubble node-speech-bubble" transform="translate(-3414.5659562746255,-306.4327270507811) "><path class="speech-bubble-outline" transform="scale(-1,1) " d="M 0 0 L 20 -10 L 20 -125 A 10 10 0 0 1 30 -135 L 698.5546875 -135 A 10 10 0 0 1 708.5546875 -125 L 708.5546875 125 A 10 10 0 0 1 698.5546875 135 L 30 135 A 10 10 0 0 1 20 125 L 20 10 Z" fill="rgb(255, 255, 255)" stroke="rgb(0, 0, 0)" stroke-width="3px"/><text class="speech-bubble-content property-key" x="-142.98828125" y="-100" alignment-baseline="central" text-anchor="end" font-size="50px" font-family="&quot;Gill Sans&quot;, &quot;Gill Sans MT&quot;, Calibri, sans-serif" xml:space="preserve">name: </text><text class="speech-bubble-content property-key" x="-142.98828125" y="-50" alignment-baseline="central" text-anchor="end" font-size="50px" font-family="&quot;Gill Sans&quot;, &quot;Gill Sans MT&quot;, Calibri, sans-serif" xml:space="preserve">current_gdp: </text><text class="speech-bubble-content property-key" x="-142.98828125" y="0" alignment-baseline="central" text-anchor="end" font-size="50px" font-family="&quot;Gill Sans&quot;, &quot;Gill Sans MT&quot;, Calibri, sans-serif" xml:space="preserve">current_gdp_per_capita: </text><text class="speech-bubble-content property-key" x="-142.98828125" y="50" alignment-baseline="central" text-anchor="end" font-size="50px" font-family="&quot;Gill Sans&quot;, &quot;Gill Sans MT&quot;, Calibri, sans-serif" xml:space="preserve">current_global_gdp_share: </text><text class="speech-bubble-content property-key" x="-142.98828125" y="100" alignment-baseline="central" text-anchor="end" font-size="50px" font-family="&quot;Gill Sans&quot;, &quot;Gill Sans MT&quot;, Calibri, sans-serif" xml:space="preserve">current_population: </text><text class="speech-bubble-content property-value" x="-142.98828125" y="-100" alignment-baseline="central" font-size="50px" font-family="&quot;Gill Sans&quot;, &quot;Gill Sans MT&quot;, Calibri, sans-serif">string</text><text class="speech-bubble-content property-value" x="-142.98828125" y="-50" alignment-baseline="central" font-size="50px" font-family="&quot;Gill Sans&quot;, &quot;Gill Sans MT&quot;, Calibri, sans-serif">string</text><text class="speech-bubble-content property-value" x="-142.98828125" y="0" alignment-baseline="central" font-size="50px" font-family="&quot;Gill Sans&quot;, &quot;Gill Sans MT&quot;, Calibri, sans-serif">string</text><text class="speech-bubble-content property-value" x="-142.98828125" y="50" alignment-baseline="central" font-size="50px" font-family="&quot;Gill Sans&quot;, &quot;Gill Sans MT&quot;, Calibri, sans-serif">string</text><text class="speech-bubble-content property-value" x="-142.98828125" y="100" alignment-baseline="central" font-size="50px" font-family="&quot;Gill Sans&quot;, &quot;Gill Sans MT&quot;, Calibri, sans-serif">int</text></g><g class="speech-bubble node-speech-bubble" transform="translate(-1688.7258984374998,-1176.0385249867206) "><path class="speech-bubble-outline" transform="scale(1,-1) " d="M 0 0 L -10 20 L -179.30908203125 20 A 10 10 0 0 0 -189.30908203125 30 L -189.30908203125 130 A 10 10 0 0 0 -179.30908203125 140 L 179.30908203125 140 A 10 10 0 0 0 189.30908203125 130 L 189.30908203125 30 A 10 10 0 0 0 179.30908203125 20 L 10 20 Z" fill="rgb(255, 255, 255)" stroke="rgb(0, 0, 0)" stroke-width="3px"/><text class="speech-bubble-content property-key" x="66.32080078125" y="-105" alignment-baseline="central" text-anchor="end" font-size="50px" font-family="&quot;Gill Sans&quot;, &quot;Gill Sans MT&quot;, Calibri, sans-serif" xml:space="preserve">HS4_id: </text><text class="speech-bubble-content property-key" x="66.32080078125" y="-55" alignment-baseline="central" text-anchor="end" font-size="50px" font-family="&quot;Gill Sans&quot;, &quot;Gill Sans MT&quot;, Calibri, sans-serif" xml:space="preserve">HS4_name: </text><text class="speech-bubble-content property-value" x="66.32080078125" y="-105" alignment-baseline="central" font-size="50px" font-family="&quot;Gill Sans&quot;, &quot;Gill Sans MT&quot;, Calibri, sans-serif">int</text><text class="speech-bubble-content property-value" x="66.32080078125" y="-55" alignment-baseline="central" font-size="50px" font-family="&quot;Gill Sans&quot;, &quot;Gill Sans MT&quot;, Calibri, sans-serif">string</text></g><g class="speech-bubble node-speech-bubble" transform="translate(-1065.62080078125,-1189.6379109711463) "><path class="speech-bubble-outline" transform="scale(1,-1) " d="M 0 0 L -10 20 L -179.30908203125 20 A 10 10 0 0 0 -189.30908203125 30 L -189.30908203125 130 A 10 10 0 0 0 -179.30908203125 140 L 179.30908203125 140 A 10 10 0 0 0 189.30908203125 130 L 189.30908203125 30 A 10 10 0 0 0 179.30908203125 20 L 10 20 Z" fill="rgb(255, 255, 255)" stroke="rgb(0, 0, 0)" stroke-width="3px"/><text class="speech-bubble-content property-key" x="66.32080078125" y="-105" alignment-baseline="central" text-anchor="end" font-size="50px" font-family="&quot;Gill Sans&quot;, &quot;Gill Sans MT&quot;, Calibri, sans-serif" xml:space="preserve">HS2_id: </text><text class="speech-bubble-content property-key" x="66.32080078125" y="-55" alignment-baseline="central" text-anchor="end" font-size="50px" font-family="&quot;Gill Sans&quot;, &quot;Gill Sans MT&quot;, Calibri, sans-serif" xml:space="preserve">HS2_name: </text><text class="speech-bubble-content property-value" x="66.32080078125" y="-105" alignment-baseline="central" font-size="50px" font-family="&quot;Gill Sans&quot;, &quot;Gill Sans MT&quot;, Calibri, sans-serif">int</text><text class="speech-bubble-content property-value" x="66.32080078125" y="-55" alignment-baseline="central" font-size="50px" font-family="&quot;Gill Sans&quot;, &quot;Gill Sans MT&quot;, Calibri, sans-serif">string</text></g><g class="speech-bubble node-speech-bubble" transform="translate(-519.1028014318072,-891.6260156249999) "><path class="speech-bubble-outline" transform="scale(1,1) " d="M 0 0 L 20 -10 L 20 -50 A 10 10 0 0 1 30 -60 L 449.5556640625 -60 A 10 10 0 0 1 459.5556640625 -50 L 459.5556640625 50 A 10 10 0 0 1 449.5556640625 60 L 30 60 A 10 10 0 0 1 20 50 L 20 10 Z" fill="rgb(255, 255, 255)" stroke="rgb(0, 0, 0)" stroke-width="3px"/><text class="speech-bubble-content property-key" x="336.5673828125" y="-25" alignment-baseline="central" text-anchor="end" font-size="50px" font-family="&quot;Gill Sans&quot;, &quot;Gill Sans MT&quot;, Calibri, sans-serif" xml:space="preserve">section_id: </text><text class="speech-bubble-content property-key" x="336.5673828125" y="25" alignment-baseline="central" text-anchor="end" font-size="50px" font-family="&quot;Gill Sans&quot;, &quot;Gill Sans MT&quot;, Calibri, sans-serif" xml:space="preserve">section_name: </text><text class="speech-bubble-content property-value" x="336.5673828125" y="-25" alignment-baseline="central" font-size="50px" font-family="&quot;Gill Sans&quot;, &quot;Gill Sans MT&quot;, Calibri, sans-serif">int</text><text class="speech-bubble-content property-value" x="336.5673828125" y="25" alignment-baseline="central" font-size="50px" font-family="&quot;Gill Sans&quot;, &quot;Gill Sans MT&quot;, Calibri, sans-serif">string</text></g><g class="speech-bubble node-speech-bubble" transform="translate(-3090.41930752619,-1151.3187948308787) "><path class="speech-bubble-outline" transform="scale(-1,-1) " d="M 0 0 L 30 20 L 230.2685546875 20 A 10 10 0 0 1 240.2685546875 30 L 240.2685546875 80 A 10 10 0 0 1 230.2685546875 90 L 30 90 A 10 10 0 0 1 20 80 L 20 30 Z" fill="rgb(255, 255, 255)" stroke="rgb(0, 0, 0)" stroke-width="3px"/><text class="speech-bubble-content property-key" x="-117.4267578125" y="-55" alignment-baseline="central" text-anchor="end" font-size="50px" font-family="&quot;Gill Sans&quot;, &quot;Gill Sans MT&quot;, Calibri, sans-serif" xml:space="preserve">year: </text><text class="speech-bubble-content property-value" x="-117.4267578125" y="-55" alignment-baseline="central" font-size="50px" font-family="&quot;Gill Sans&quot;, &quot;Gill Sans MT&quot;, Calibri, sans-serif">date</text></g><g class="speech-bubble node-speech-bubble" transform="translate(-2385.5255566406227,40.99690322371596) "><path class="speech-bubble-outline" transform="scale(1,1) " d="M 0 0 L -10 20 L -183.63037109375 20 A 10 10 0 0 0 -193.63037109375 30 L -193.63037109375 180 A 10 10 0 0 0 -183.63037109375 190 L 183.63037109375 190 A 10 10 0 0 0 193.63037109375 180 L 193.63037109375 30 A 10 10 0 0 0 183.63037109375 20 L 10 20 Z" fill="rgb(255, 255, 255)" stroke="rgb(0, 0, 0)" stroke-width="3px"/><text class="speech-bubble-content property-key" x="96.20361328125" y="55" alignment-baseline="central" text-anchor="end" font-size="50px" font-family="&quot;Gill Sans&quot;, &quot;Gill Sans MT&quot;, Calibri, sans-serif" xml:space="preserve">FTA_ID: </text><text class="speech-bubble-content property-key" x="96.20361328125" y="105" alignment-baseline="central" text-anchor="end" font-size="50px" font-family="&quot;Gill Sans&quot;, &quot;Gill Sans MT&quot;, Calibri, sans-serif" xml:space="preserve">date_inforce: </text><text class="speech-bubble-content property-key" x="96.20361328125" y="155" alignment-baseline="central" text-anchor="end" font-size="50px" font-family="&quot;Gill Sans&quot;, &quot;Gill Sans MT&quot;, Calibri, sans-serif" xml:space="preserve">date_signed: </text><text class="speech-bubble-content property-value" x="96.20361328125" y="55" alignment-baseline="central" font-size="50px" font-family="&quot;Gill Sans&quot;, &quot;Gill Sans MT&quot;, Calibri, sans-serif">int</text><text class="speech-bubble-content property-value" x="96.20361328125" y="105" alignment-baseline="central" font-size="50px" font-family="&quot;Gill Sans&quot;, &quot;Gill Sans MT&quot;, Calibri, sans-serif">date</text><text class="speech-bubble-content property-value" x="96.20361328125" y="155" alignment-baseline="central" font-size="50px" font-family="&quot;Gill Sans&quot;, &quot;Gill Sans MT&quot;, Calibri, sans-serif">date</text></g><g class="speech-bubble node-speech-bubble" transform="translate(-2312.75578125,-1246.2482183864706) "><path class="speech-bubble-outline" transform="scale(1,-1) " d="M 0 0 L -10 20 L -164.55078125 20 A 10 10 0 0 0 -174.55078125 30 L -174.55078125 80 A 10 10 0 0 0 -164.55078125 90 L 164.55078125 90 A 10 10 0 0 0 174.55078125 80 L 174.55078125 30 A 10 10 0 0 0 164.55078125 20 L 10 20 Z" fill="rgb(255, 255, 255)" stroke="rgb(0, 0, 0)" stroke-width="3px"/><text class="speech-bubble-content property-key" x="51.5625" y="-55" alignment-baseline="central" text-anchor="end" font-size="50px" font-family="&quot;Gill Sans&quot;, &quot;Gill Sans MT&quot;, Calibri, sans-serif" xml:space="preserve">Currency: </text><text class="speech-bubble-content property-value" x="51.5625" y="-55" alignment-baseline="central" font-size="50px" font-family="&quot;Gill Sans&quot;, &quot;Gill Sans MT&quot;, Calibri, sans-serif">string</text></g></g><g class="layer overlay"><circle class="node overlay" r="85.48257513332433" stroke="none" fill="rgba(255, 255, 255, 0)" cx="-2312.75578125" cy="-717.558984375"/><circle class="node overlay" r="181.45433200308383" stroke="none" fill="rgba(255, 255, 255, 0)" cx="-1478.7029271697986" cy="-306.4327270507811"/><circle class="node overlay" r="184.05856369650002" stroke="none" fill="rgba(255, 255, 255, 0)" cx="-3234.5073925781253" cy="-306.4327270507811"/><circle class="node overlay" r="107.13457967422063" stroke="none" fill="rgba(255, 255, 255, 0)" cx="-1688.7258984374998" cy="-1072.9039453125"/><circle class="node overlay" r="120.73396565864643" stroke="none" fill="rgba(255, 255, 255, 0)" cx="-1065.62080078125" cy="-1072.9039453125"/><circle class="node overlay" r="101.55915077766545" stroke="none" fill="rgba(255, 255, 255, 0)" cx="-616.6619522094726" cy="-891.6260156249999"/><circle class="node overlay" r="73.95185159579395" stroke="none" fill="rgba(255, 255, 255, 0)" cx="-3040.9558789062494" cy="-1101.8553662109377"/><circle class="node overlay" r="71.02374709578595" stroke="none" fill="rgba(255, 255, 255, 0)" cx="-2385.5255566406227" cy="-26.026843872069993"/><circle class="node overlay" r="121.84368713647059" stroke="none" fill="rgba(255, 255, 255, 0)" cx="-2312.75578125" cy="-1128.40453125"/><circle class="node ring" r="90.48257513332433" fill="none" stroke="rgba(255, 255, 255, 0)" stroke-width="10px" cx="-2312.75578125" cy="-717.558984375"/><circle class="node ring" r="186.45433200308383" fill="none" stroke="rgba(255, 255, 255, 0)" stroke-width="10px" cx="-1478.7029271697986" cy="-306.4327270507811"/><circle class="node ring" r="189.05856369650002" fill="none" stroke="rgba(255, 255, 255, 0)" stroke-width="10px" cx="-3234.5073925781253" cy="-306.4327270507811"/><circle class="node ring" r="112.13457967422063" fill="none" stroke="rgba(255, 255, 255, 0)" stroke-width="10px" cx="-1688.7258984374998" cy="-1072.9039453125"/><circle class="node ring" r="125.73396565864643" fill="none" stroke="rgba(255, 255, 255, 0)" stroke-width="10px" cx="-1065.62080078125" cy="-1072.9039453125"/><circle class="node ring" r="106.55915077766545" fill="none" stroke="rgba(255, 255, 255, 0)" stroke-width="10px" cx="-616.6619522094726" cy="-891.6260156249999"/><circle class="node ring" r="78.95185159579395" fill="none" stroke="rgba(255, 255, 255, 0)" stroke-width="10px" cx="-3040.9558789062494" cy="-1101.8553662109377"/><circle class="node ring" r="76.02374709578595" fill="none" stroke="rgba(255, 255, 255, 0)" stroke-width="10px" cx="-2385.5255566406227" cy="-26.026843872069993"/><circle class="node ring" r="126.84368713647059" fill="none" stroke="rgba(255, 255, 255, 0)" stroke-width="10px" cx="-2312.75578125" cy="-1128.40453125"/><path class="relationship overlay" fill="rgba(255, 255, 255, 0)" stroke="rgba(255, 255, 255, 0)" stroke-width="10px" transform="translate(-2312.75578125,-717.558984375) rotate(26.239881884479182)" d="M 96.48257513332433 4 L 705.4214461849219 4 L 705.4214461849219 16 L 737.4214461849219 0 L 705.4214461849219 -16 L 705.4214461849219 -4 L 96.48257513332433 -4 Z"/><path class="relationship overlay" fill="rgba(255, 255, 255, 0)" stroke="rgba(255, 255, 255, 0)" stroke-width="10px" transform="translate(-2312.75578125,-717.558984375) rotate(155.96183040817365)" d="M 96.48257513332433 4 L 782.2237716524426 4 L 782.2237716524426 16 L 814.2237716524426 0 L 782.2237716524426 -16 L 782.2237716524426 -4 L 96.48257513332433 -4 Z"/><path class="relationship overlay" fill="rgba(255, 255, 255, 0)" stroke="rgba(255, 255, 255, 0)" stroke-width="10px" transform="translate(-2312.75578125,-717.558984375) rotate(-29.658735597784958)" d="M 96.48257513332433 4 L 567.9763699057561 4 L 567.9763699057561 16 L 599.9763699057561 0 L 567.9763699057561 -16 L 567.9763699057561 -4 L 96.48257513332433 -4 Z"/><path class="relationship overlay" fill="rgba(255, 255, 255, 0)" stroke="rgba(255, 255, 255, 0)" stroke-width="10px" transform="translate(-1688.7258984374998,-1072.9039453125) rotate(0)" d="M 118.13457967422063 4 L 459.3711319976036 4 L 459.3711319976036 16 L 491.3711319976036 0 L 459.3711319976036 -16 L 459.3711319976036 -4 L 118.13457967422063 -4 Z"/><path class="relationship overlay" fill="rgba(255, 255, 255, 0)" stroke="rgba(255, 255, 255, 0)" stroke-width="10px" transform="translate(-1065.62080078125,-1072.9039453125) rotate(21.987577559723363)" d="M 131.7339656586464 4 L 339.61616406467783 4 L 339.61616406467783 16 L 371.61616406467783 0 L 339.61616406467783 -16 L 339.61616406467783 -4 L 131.7339656586464 -4 Z"/><path class="relationship overlay" fill="rgba(255, 255, 255, 0)" stroke="rgba(255, 255, 255, 0)" stroke-width="10px" transform="translate(-2312.75578125,-717.558984375) rotate(-152.17783891451685)" d="M 96.48257513332433 4 L 706.4308609496932 4 L 706.4308609496932 16 L 738.4308609496932 0 L 706.4308609496932 -16 L 706.4308609496932 -4 L 96.48257513332433 -4 Z"/><path class="relationship overlay" fill="rgba(255, 255, 255, 0)" stroke="rgba(255, 255, 255, 0)" stroke-width="10px" transform="translate(-2385.5255566406227,-26.026843872069993) rotate(-17.182550329887295)" d="M 82.02374709578595 4 L 724.732025169001 4 L 724.732025169001 16 L 756.732025169001 0 L 724.732025169001 -16 L 724.732025169001 -4 L 82.02374709578595 -4 Z"/><path class="relationship overlay" fill="rgba(255, 255, 255, 0)" stroke="rgba(255, 255, 255, 0)" stroke-width="10px" transform="translate(-2385.5255566406227,-26.026843872069993) rotate(-161.72239065576736)" d="M 82.02374709578595 4 L 667.03182159631 4 L 667.03182159631 16 L 699.03182159631 0 L 667.03182159631 -16 L 667.03182159631 -4 L 82.02374709578595 -4 Z"/><path class="relationship overlay" fill="rgba(255, 255, 255, 0)" stroke="rgba(255, 255, 255, 0)" stroke-width="10px" transform="translate(-2312.75578125,-717.558984375) rotate(-90)" d="M 96.48257513332433 4 L 246.0018597385294 4 L 246.0018597385294 16 L 278.0018597385294 0 L 246.0018597385294 -16 L 246.0018597385294 -4 L 96.48257513332433 -4 Z"/></g></svg>